<?xml version="1.0" standalone="no"?>
<!DOCTYPE svg PUBLIC "-//W3C//DTD SVG 20010904//EN"
 "http://www.w3.org/TR/2001/REC-SVG-20010904/DTD/svg10.dtd">
<svg version="1.0" xmlns="http://www.w3.org/2000/svg"
 width="800.000000pt" height="800.000000pt" viewBox="0 0 800.000000 800.000000"
 preserveAspectRatio="xMidYMid meet">

<g transform="translate(0.000000,800.000000) scale(0.100000,-0.100000)"
fill="#000000" stroke="none">
<path d="M681 4969 c-56 -22 -92 -64 -216 -253 -72 -111 -179 -273 -237 -362
-58 -88 -114 -176 -124 -195 -18 -32 -19 -64 -19 -509 0 -467 0 -476 22 -515
27 -50 58 -80 105 -100 32 -13 110 -15 548 -15 485 0 513 1 548 19 46 24 603
583 629 631 17 33 18 70 18 595 0 554 0 560 -22 600 -27 50 -58 80 -105 100
-32 13 -112 15 -580 14 -315 0 -553 -4 -567 -10z m549 -384 c0 -103 4 -165 10
-165 6 0 10 3 10 8 0 4 10 78 22 165 l22 157 183 0 c101 0 183 -3 183 -6 0 -4
-27 -82 -60 -174 -33 -92 -60 -174 -60 -182 0 -12 76 -237 109 -321 6 -16 11
-33 11 -38 0 -5 -77 -9 -184 -9 l-184 0 -11 50 c-6 28 -16 73 -22 100 -6 28
-15 50 -19 50 -5 0 -11 -44 -12 -97 l-3 -98 -180 0 -180 0 -3 363 -2 362 185
0 185 0 0 -165z"/>
<path d="M3539 4510 c0 -5 0 -314 0 -685 0 -371 0 -680 0 -685 1 -7 40 -10
109 -8 l107 3 6 225 c8 268 20 319 98 403 39 43 78 59 143 59 64 0 97 -15 125
-59 16 -24 19 -63 23 -328 l5 -300 107 -3 c102 -3 107 -2 113 19 4 12 4 169 0
348 -6 292 -9 331 -26 371 -11 25 -30 55 -42 68 -113 121 -355 114 -496 -13
-21 -19 -41 -35 -45 -35 -3 0 -6 132 -6 293 0 160 -3 302 -6 315 -6 21 -11 22
-110 22 -62 0 -104 -4 -105 -10z"/>
<path d="M5645 4508 c-3 -7 -4 -319 -3 -693 l3 -680 104 -3 c77 -2 107 1 113
10 9 15 11 1338 2 1362 -5 13 -25 16 -110 16 -75 0 -106 -4 -109 -12z"/>
<path d="M7682 4508 c-9 -9 -12 -83 -12 -288 0 -152 -3 -279 -6 -283 -3 -3
-26 8 -51 23 -89 57 -195 77 -311 60 -217 -31 -352 -204 -352 -454 0 -161 44
-272 144 -364 130 -118 343 -125 513 -16 29 19 55 34 58 34 2 0 5 -19 7 -42
l3 -43 110 0 110 0 0 690 0 690 -100 3 c-70 2 -104 -1 -113 -10z m-159 -682
c54 -20 104 -61 127 -106 16 -32 20 -59 20 -143 0 -102 -1 -106 -32 -153 -47
-69 -109 -99 -208 -99 -64 0 -82 4 -122 28 -84 49 -128 131 -128 236 0 99 69
208 152 237 44 17 144 16 191 0z"/>
<path d="M2405 4468 c-3 -7 -4 -310 -3 -673 l3 -660 115 0 115 0 7 40 c4 22 7
149 7 283 l1 243 34 -3 c32 -3 47 -20 245 -286 l211 -283 127 3 c104 2 128 6
131 18 1 8 -64 105 -146 215 -246 333 -302 412 -302 424 0 6 18 22 41 36 61
39 197 173 242 239 78 116 171 356 154 400 -5 13 -25 16 -110 16 -72 0 -108
-4 -114 -12 -5 -7 -17 -44 -26 -83 -9 -38 -38 -113 -63 -165 -62 -125 -154
-218 -275 -278 -46 -23 -99 -44 -116 -48 l-33 -6 -1 268 c-1 148 -4 280 -8
294 -7 25 -9 25 -119 28 -84 2 -114 -1 -117 -10z"/>
<path d="M4847 4020 c-151 -26 -272 -150 -317 -325 -46 -180 -9 -362 96 -475
68 -73 136 -103 245 -108 107 -5 185 17 283 83 37 25 68 45 71 45 2 0 5 -24 7
-52 l3 -53 110 0 110 0 0 190 c0 105 -2 298 -5 430 l-5 240 -100 0 -100 0 -9
-40 c-5 -22 -11 -42 -12 -43 -1 -2 -22 9 -46 26 -69 47 -119 69 -183 81 -65
12 -79 12 -148 1z m249 -205 c43 -18 99 -69 118 -109 11 -24 16 -63 16 -137 0
-91 -3 -107 -25 -145 -32 -54 -65 -78 -139 -99 -135 -39 -266 31 -311 165 -46
140 36 308 166 340 41 11 133 3 175 -15z"/>
<path d="M6335 4016 c-210 -51 -340 -253 -322 -501 23 -324 318 -487 682 -377
79 24 145 66 145 92 0 29 -48 120 -67 127 -8 3 -45 -9 -82 -27 -85 -42 -198
-52 -281 -25 -59 20 -143 94 -138 122 2 12 85 47 282 119 153 57 283 107 289
113 13 13 -6 89 -40 158 -33 66 -84 127 -134 159 -80 50 -222 67 -334 40z
m194 -194 c40 -22 99 -98 85 -111 -11 -10 -355 -131 -373 -131 -14 0 -10 40
11 113 14 46 72 115 112 133 45 19 125 17 165 -4z"/>
</g>
</svg>
