<?xml version="1.0" standalone="no"?>
<!DOCTYPE svg PUBLIC "-//W3C//DTD SVG 20010904//EN"
 "http://www.w3.org/TR/2001/REC-SVG-20010904/DTD/svg10.dtd">
<svg version="1.0" xmlns="http://www.w3.org/2000/svg"
 width="800.000000pt" height="800.000000pt" viewBox="0 0 800.000000 800.000000"
 preserveAspectRatio="xMidYMid meet">

<g transform="translate(0.000000,800.000000) scale(0.100000,-0.100000)"
fill="#FF0000" stroke="none">
<path d="M0 4000 l0 -4000 4000 0 4000 0 0 4000 0 4000 -4000 0 -4000 0 0
-4000z m7067 3900 c309 -74 540 -304 626 -623 l22 -82 0 -2135 0 -2135 -23
-83 c-27 -97 -58 -170 -108 -256 -29 -47 -288 -312 -1138 -1164 -606 -607
-1126 -1123 -1156 -1146 -102 -80 -208 -130 -340 -161 -57 -13 -305 -15 -2010
-15 -2100 0 -1985 -2 -2130 51 -252 93 -457 325 -520 589 -20 84 -20 114 -20
1879 0 1778 0 1794 21 1882 29 124 77 212 310 564 113 171 265 402 339 515
145 219 350 530 583 885 240 363 513 779 635 965 193 294 332 406 587 471 66
16 192 18 2155 18 2042 1 2087 0 2167 -19z"/>
<path d="M2780 4775 l0 -2035 1015 0 1015 0 0 560 0 560 64 0 c53 0 66 -3 70
-17 3 -10 33 -146 66 -303 34 -157 70 -325 81 -375 11 -49 26 -119 34 -155 7
-36 23 -111 36 -167 l22 -103 1033 0 c569 0 1034 3 1034 8 0 4 -102 295 -226
647 -124 352 -229 651 -234 665 -4 14 -31 90 -60 170 -28 80 -81 228 -118 330
-36 102 -66 201 -66 220 0 19 50 175 113 350 130 361 161 451 336 945 121 343
204 578 239 674 9 24 16 47 16 52 0 5 -448 9 -1028 9 l-1029 0 -11 -87 c-6
-49 -40 -299 -76 -558 -36 -258 -70 -506 -76 -550 -6 -44 -17 -125 -25 -180
-8 -55 -24 -170 -35 -255 -32 -234 -21 -210 -96 -210 l-64 0 0 920 0 920
-1015 0 -1015 0 0 -2035z"/>
</g>
</svg>
